<?xml version="1.0" encoding="UTF-8"?>
<!DOCTYPE svg PUBLIC "-//W3C//DTD SVG 1.1//EN" "http://www.w3.org/Graphics/SVG/1.1/DTD/svg11.dtd">
<!-- Creator: CorelDRAW X7 -->
<svg xmlns="http://www.w3.org/2000/svg" xml:space="preserve" width="280.957mm" height="90.2042mm" version="1.1" style="shape-rendering:geometricPrecision; text-rendering:geometricPrecision; image-rendering:optimizeQuality; fill-rule:evenodd; clip-rule:evenodd"
viewBox="0 0 28096 9020"
 xmlns:xlink="http://www.w3.org/1999/xlink">
 <defs>
  <style type="text/css">
   <![CDATA[
    .fil2 {fill:black}
    .fil3 {fill:#DC853D}
    .fil0 {fill:black;fill-rule:nonzero}
    .fil1 {fill:#DC853D;fill-rule:nonzero}
    .fil4 {fill:url(#id0)}
   ]]>
  </style>
  <linearGradient id="id0" gradientUnits="userSpaceOnUse" x1="3929.26" y1="3335.96" x2="3929.26" y2="6023.22">
   <stop offset="0" style="stop-opacity:1; stop-color:black"/>
   <stop offset="0.478431" style="stop-opacity:1; stop-color:#6E421E"/>
   <stop offset="0.831373" style="stop-opacity:1; stop-color:#DC853D"/>
   <stop offset="1" style="stop-opacity:1; stop-color:#DC853D"/>
  </linearGradient>
 </defs>
 <g id="Camada_x0020_1">
  <metadata id="CorelCorpID_0Corel-Layer"/>
  <g id="_2714567155280">
   <path class="fil0" d="M13345 4671l0 -3796 -901 0 -997 1605 -998 -1605 -900 0 0 3796 819 0 0 -2462 1057 1605 22 0 1068 -1621 0 2478 830 0zm4608 0l-1626 -3823 -770 0 -1627 3823 851 0 347 -852 1605 0 347 852 873 0zm-1518 -1589l-1008 0 504 -1231 504 1231zm4831 1589l0 -759 -1892 0 0 -3037 -835 0 0 3796 2727 0zm2961 -3026l0 -770 -3145 0 0 770 1155 0 0 3026 835 0 0 -3026 1155 0zm3849 3026l-1626 -3823 -770 0 -1627 3823 851 0 347 -852 1605 0 347 852 873 0zm-1518 -1589l-1008 0 504 -1231 504 1231z"/>
   <path class="fil1" d="M9545 8137l1493 0 0 -210 -1262 0 0 -716 1116 0 0 -210 -1116 0 0 -698 1247 0 0 -211 -1478 0 0 2045zm1772 0l225 0 0 -1677 1321 1677 184 0 0 -2045 -225 0 0 1639 -1289 -1639 -216 0 0 2045zm3073 35c344,0 631,-143 820,-312l0 -815 -844 0 0 207 622 0 0 508c-140,114 -356,205 -590,205 -496,0 -809,-362 -809,-850l0 -6c0,-456 324,-838 777,-838 289,0 465,96 622,233l149 -175c-204,-172 -417,-272 -762,-272 -613,0 -1025,497 -1025,1058l0 6c0,584 397,1051 1040,1051zm1155 -35l1493 0 0 -210 -1262 0 0 -716 1116 0 0 -210 -1116 0 0 -698 1248 0 0 -211 -1479 0 0 2045zm1773 0l225 0 0 -1677 1320 1677 184 0 0 -2045 -225 0 0 1639 -1288 -1639 -216 0 0 2045zm2123 0l230 0 0 -920 1181 0 0 920 230 0 0 -2045 -230 0 0 909 -1181 0 0 -909 -230 0 0 2045zm1860 0l236 0 243 -540 1113 0 239 540 249 0 -932 -2059 -216 0 -932 2059zm569 -748l468 -1042 464 1042 -932 0zm1729 748l231 0 0 -794 578 0 6 0 593 794 283 0 -628 -835c321,-59 555,-257 555,-596l0 -6c0,-161 -58,-304 -158,-403 -128,-129 -330,-205 -581,-205l-879 0 0 2045zm231 -1002l0 -829 631 0c330,0 522,152 522,403l0 6c0,262 -219,420 -525,420l-628 0zm1716 1002l231 0 0 -2045 -231 0 0 2045zm470 0l236 0 243 -540 1113 0 239 540 249 0 -932 -2059 -216 0 -932 2059zm569 -748l468 -1042 464 1042 -932 0z"/>
   <path class="fil2" d="M3929 1908l2360 -1908 0 2081 -788 604 0 -1091 -1572 1335 -1572 -1335 0 1091 -787 -604 0 -2081 2359 1908zm-2422 130l-1462 -1096 1462 -937 0 2033zm4845 0l1462 -1096 -1462 -937 0 2033z"/>
   <polygon class="fil3" points="788,2553 788,6950 1570,7502 1570,3336 2357,3943 2357,9020 0,7356 0,1007 625,1457 3929,3998 7234,1457 7859,1007 7859,7356 5501,9020 5501,3943 6289,3336 6289,7502 7071,6950 7071,2553 3929,4973 "/>
   <path class="fil4" d="M1570 6023l0 -2687 787 607 0 2080 -787 0zm4719 0l-788 0 0 -2080 788 -607 0 2687z"/>
  </g>
 </g>
</svg>
